<svg width="191" height="51" viewBox="0 0 191 51" fill="none" xmlns="http://www.w3.org/2000/svg">
<path d="M9.81241 43.0893C8.84212 43.0893 7.98921 42.8702 7.25367 42.432C6.51813 41.9782 5.94692 41.3835 5.54002 40.6479C5.13313 39.8967 4.92968 39.0751 4.92968 38.1831V29.6148H0.35212V26.657H12.8641V29.6148H8.28656V38.5822C8.28656 39.0047 8.43523 39.3725 8.73258 39.6855C9.02992 39.9828 9.38987 40.1315 9.81241 40.1315H10.9861V43.0893H9.81241ZM14.8707 43.0893V26.657H22.2182C23.2981 26.657 24.2762 26.8996 25.1526 27.3847C26.0446 27.8542 26.7488 28.5115 27.2653 29.3566C27.7974 30.2017 28.0634 31.1876 28.0634 32.3144C28.0634 33.4099 27.8052 34.3802 27.2888 35.2253C26.7723 36.0547 26.0915 36.712 25.2465 37.1972L26.7488 39.8263C26.8114 39.9202 26.8897 39.9985 26.9836 40.0611C27.0775 40.108 27.187 40.1315 27.3122 40.1315H28.9085V43.0893H26.7958C26.1385 43.0893 25.536 42.925 24.9882 42.5963C24.4561 42.2677 24.0336 41.8373 23.7206 41.3052L21.8661 37.9718C21.7253 37.9718 21.5766 37.9718 21.4201 37.9718C21.2792 37.9718 21.1384 37.9718 20.9975 37.9718H18.2275V43.0893H14.8707ZM18.2275 35.014H21.8192C22.3512 35.014 22.8364 34.9123 23.2746 34.7088C23.7128 34.4897 24.0571 34.1767 24.3075 33.7699C24.5735 33.363 24.7065 32.8778 24.7065 32.3144C24.7065 31.751 24.5735 31.2659 24.3075 30.859C24.0414 30.4521 23.6893 30.1469 23.2511 29.9435C22.8286 29.7244 22.3512 29.6148 21.8192 29.6148H18.2275V35.014ZM29.137 43.0893L34.4892 28.4881C34.7553 27.7838 35.17 27.2595 35.7334 26.9152C36.3124 26.5553 36.9619 26.3753 37.6818 26.3753C38.4017 26.3753 39.0511 26.5475 39.6302 26.8918C40.2092 27.2204 40.6239 27.7447 40.8743 28.4646L46.25 43.0893H42.5645L41.4612 39.7794H33.8085L32.6582 43.0893H29.137ZM34.8179 36.8216H40.4753L38.1043 29.6148C38.073 29.5053 38.0183 29.427 37.94 29.3801C37.8774 29.3331 37.7992 29.3097 37.7053 29.3097C37.6114 29.3097 37.5331 29.341 37.4705 29.4036C37.4079 29.4505 37.361 29.5209 37.3297 29.6148L34.8179 36.8216ZM52.939 43.371C52.2192 43.371 51.5697 43.2067 50.9906 42.878C50.4273 42.5337 50.0125 42.0016 49.7465 41.2817L44.8403 26.657H48.5728L52.54 39.8967C52.5713 40.0063 52.6182 40.0845 52.6808 40.1315C52.7591 40.1784 52.8451 40.2019 52.939 40.2019C53.0329 40.2019 53.1112 40.1784 53.1738 40.1315C53.252 40.0845 53.3068 40.0063 53.3381 39.8967L57.4462 26.657H61.0143L56.1316 41.2583C55.8812 41.9625 55.4665 42.4946 54.8874 42.8545C54.3084 43.1988 53.6589 43.371 52.939 43.371ZM66.8702 43.0893C65.9625 43.0893 65.133 42.8702 64.3818 42.432C63.6463 41.9938 63.0594 41.4069 62.6212 40.6714C62.183 39.9202 61.964 39.0908 61.964 38.1831C61.964 37.5258 62.1048 36.9076 62.3865 36.3286C62.6682 35.7495 63.0516 35.2409 63.5368 34.8027C63.0516 34.3645 62.6682 33.8559 62.3865 33.2769C62.1048 32.6978 61.964 32.0875 61.964 31.4459C61.964 30.5538 62.1752 29.7479 62.5978 29.028C63.036 28.3081 63.615 27.7369 64.3349 27.3143C65.0704 26.8761 65.8764 26.657 66.7528 26.657H73.5135V29.6148H67.1284C66.7997 29.6148 66.4946 29.7009 66.2129 29.8731C65.9468 30.0296 65.7277 30.2487 65.5556 30.5303C65.3991 30.7964 65.3208 31.1016 65.3208 31.4459C65.3208 31.7745 65.3991 32.0797 65.5556 32.3614C65.7277 32.6274 65.9468 32.8465 66.2129 33.0187C66.4946 33.1752 66.7997 33.2534 67.1284 33.2534H72.7153V36.2112H67.2692C66.9093 36.2112 66.5806 36.3051 66.2833 36.4929C65.9859 36.6651 65.7512 36.8998 65.579 37.1972C65.4069 37.4945 65.3208 37.8231 65.3208 38.1831C65.3208 38.543 65.4069 38.8717 65.579 39.169C65.7512 39.4664 65.9859 39.7011 66.2833 39.8733C66.5806 40.0454 66.9093 40.1315 67.2692 40.1315H73.5135V43.0893H66.8702ZM80.703 43.0893C79.7327 43.0893 78.8798 42.8702 78.1442 42.432C77.4087 41.9782 76.8375 41.3835 76.4306 40.6479C76.0237 39.8967 75.8202 39.0751 75.8202 38.1831V26.657H79.1771V38.5822C79.1771 39.0047 79.3258 39.3725 79.6231 39.6855C79.9205 39.9828 80.2804 40.1315 80.703 40.1315H85.0458V43.0893H80.703ZM100.135 43.0893C99.1646 43.0893 98.3117 42.8702 97.5761 42.432C96.8406 41.9782 96.2694 41.3835 95.8625 40.6479C95.4556 39.8967 95.2521 39.0751 95.2521 38.1831V29.6148H90.6746V26.657H103.187V29.6148H98.609V38.5822C98.609 39.0047 98.7577 39.3725 99.055 39.6855C99.3524 39.9828 99.7123 40.1315 100.135 40.1315H101.309V43.0893H100.135ZM105.193 43.0893V26.657H112.541C113.621 26.657 114.599 26.8996 115.475 27.3847C116.367 27.8542 117.071 28.5115 117.588 29.3566C118.12 30.2017 118.386 31.1876 118.386 32.3144C118.386 33.4099 118.128 34.3802 117.611 35.2253C117.095 36.0547 116.414 36.712 115.569 37.1972L117.071 39.8263C117.134 39.9202 117.212 39.9985 117.306 40.0611C117.4 40.108 117.509 40.1315 117.635 40.1315H119.231V43.0893H117.118C116.461 43.0893 115.858 42.925 115.311 42.5963C114.779 42.2677 114.356 41.8373 114.043 41.3052L112.189 37.9718C112.048 37.9718 111.899 37.9718 111.743 37.9718C111.602 37.9718 111.461 37.9718 111.32 37.9718H108.55V43.0893H105.193ZM108.55 35.014H112.142C112.674 35.014 113.159 34.9123 113.597 34.7088C114.035 34.4897 114.38 34.1767 114.63 33.7699C114.896 33.363 115.029 32.8778 115.029 32.3144C115.029 31.751 114.896 31.2659 114.63 30.859C114.364 30.4521 114.012 30.1469 113.574 29.9435C113.151 29.7244 112.674 29.6148 112.142 29.6148H108.55V35.014ZM120.795 43.0893V40.1315H123.753V29.6148H120.795V26.657H130.067V29.6148H127.109V40.1315H130.067V43.0893H120.795ZM131.288 43.0893L136.641 28.4881C136.907 27.7838 137.321 27.2595 137.885 26.9152C138.464 26.5553 139.113 26.3753 139.833 26.3753C140.553 26.3753 141.203 26.5475 141.782 26.8918C142.361 27.2204 142.775 27.7447 143.026 28.4646L148.402 43.0893H144.716L143.613 39.7794H135.96L134.81 43.0893H131.288ZM136.969 36.8216H142.627L140.256 29.6148C140.225 29.5053 140.17 29.427 140.091 29.3801C140.029 29.3331 139.951 29.3097 139.857 29.3097C139.763 29.3097 139.685 29.341 139.622 29.4036C139.559 29.4505 139.512 29.5209 139.481 29.6148L136.969 36.8216ZM154.291 43.0893C153.32 43.0893 152.467 42.8702 151.732 42.432C150.996 41.9782 150.425 41.3835 150.018 40.6479C149.611 39.8967 149.408 39.0751 149.408 38.1831V26.657H152.765V38.5822C152.765 39.0047 152.913 39.3725 153.211 39.6855C153.508 39.9828 153.868 40.1315 154.291 40.1315H158.633V43.0893H154.291Z" fill="black"/>
<path d="M189.631 27.8267L187.933 27.1257C176.962 22.5956 164.732 29.95 163.589 41.7648V41.7648L160.144 32.705C158.524 28.4442 161.606 23.8624 166.163 23.7577L171.659 23.6315L156.253 23.9722L153.686 16.823L153.493 18.7026C153.186 21.6961 150.664 23.9722 147.655 23.9722L134.979 23.9722V23.9722C145.97 11.4323 164.739 9.41371 178.145 19.33L189.631 27.8267Z" fill="#2079FF"/>
</svg>
